<?xml version="1.0" standalone="no"?>
<!DOCTYPE svg PUBLIC "-//W3C//DTD SVG 20010904//EN"
 "http://www.w3.org/TR/2001/REC-SVG-20010904/DTD/svg10.dtd">
<svg version="1.0" xmlns="http://www.w3.org/2000/svg"
 width="640.000000pt" height="640.000000pt" viewBox="0 0 640.000000 640.000000"
 preserveAspectRatio="xMidYMid meet">
<metadata>
Created by potrace 1.15, written by Peter Selinger 2001-2017
</metadata>
<g transform="translate(0.000000,640.000000) scale(0.100000,-0.100000)"
fill="#000000" stroke="none">
<path d="M3195 4619 c-102 -13 -239 -55 -320 -97 -46 -24 -98 -64 -150 -117
-132 -131 -206 -299 -258 -580 -21 -113 -22 -148 -22 -630 0 -482 1 -517 22
-630 32 -173 67 -285 126 -399 117 -230 317 -359 612 -395 254 -31 547 12 700
104 72 43 171 138 230 220 40 56 115 195 115 213 0 8 -84 52 -100 52 -5 0 -26
-33 -46 -74 -100 -202 -246 -326 -437 -371 -110 -26 -283 -37 -403 -26 -215
20 -330 69 -452 189 -124 122 -188 268 -229 525 -16 97 -18 177 -18 592 0 523
6 601 61 792 74 255 241 429 469 488 153 40 405 40 572 0 191 -45 337 -169
437 -371 20 -41 41 -74 46 -74 16 0 100 44 100 52 0 18 -75 156 -115 213 -67
94 -182 197 -266 239 -163 80 -437 114 -674 85z"/>
</g>
</svg>
